<?xml version="1.0" encoding="UTF-8"?>
<svg xmlns="http://www.w3.org/2000/svg" xmlns:xlink="http://www.w3.org/1999/xlink" width="50px" height="50px" viewBox="0 0 50 49" version="1.1">
<g id="surface1">
<path style=" stroke:none;fill-rule:nonzero;fill:rgb(0%,0%,0%);fill-opacity:1;" d="M 23.808594 0.0234375 C 21.25 0.183594 19.253906 0.558594 16.996094 1.292969 C 15.261719 1.859375 13.148438 2.847656 11.660156 3.792969 C 11.304688 4.015625 11.296875 4.015625 12.03125 3.9375 C 12.777344 3.851562 14.570312 3.820312 15.3125 3.875 C 17.816406 4.058594 19.855469 4.605469 22.089844 5.683594 C 23.0625 6.15625 23.960938 6.6875 25.546875 7.726562 C 26.292969 8.214844 26.953125 8.617188 27.226562 8.746094 C 27.648438 8.953125 27.691406 8.964844 27.96875 8.964844 C 28.253906 8.964844 28.269531 8.960938 28.570312 8.773438 C 28.742188 8.667969 29.066406 8.410156 29.289062 8.203125 C 30.019531 7.511719 30.472656 6.710938 30.6875 5.722656 C 30.785156 5.269531 30.789062 4.292969 30.691406 3.839844 C 30.441406 2.671875 29.804688 1.492188 28.859375 0.449219 L 28.691406 0.265625 L 28.242188 0.207031 C 27.277344 0.0859375 26.492188 0.0351562 25.292969 0.0234375 C 24.605469 0.015625 23.9375 0.015625 23.808594 0.0234375 Z M 23.808594 0.0234375 "/>
<path style=" stroke:none;fill-rule:nonzero;fill:rgb(0%,0%,0%);fill-opacity:1;" d="M 29.804688 0.480469 C 29.804688 0.492188 29.890625 0.625 29.992188 0.78125 C 30.804688 1.96875 31.351562 3.246094 31.527344 4.359375 C 31.597656 4.792969 31.585938 5.59375 31.507812 6.023438 C 31.28125 7.277344 30.546875 8.511719 29.21875 9.875 C 28.980469 10.125 28.789062 10.339844 28.796875 10.359375 C 28.804688 10.382812 32.148438 13.464844 32.484375 13.753906 C 32.566406 13.824219 32.574219 13.820312 33.65625 12.972656 C 37.917969 9.640625 39.488281 8.566406 41.730469 7.460938 C 42.132812 7.261719 42.460938 7.078125 42.460938 7.050781 C 42.460938 6.964844 41.628906 6.203125 40.859375 5.582031 C 37.691406 3.03125 33.925781 1.269531 29.933594 0.480469 C 29.863281 0.464844 29.804688 0.464844 29.804688 0.480469 Z M 29.804688 0.480469 "/>
<path style=" stroke:none;fill-rule:nonzero;fill:rgb(0%,0%,0%);fill-opacity:1;" d="M 12.148438 4.382812 C 11.527344 4.4375 11.152344 4.496094 10.722656 4.597656 C 10.304688 4.691406 10.28125 4.703125 9.902344 4.988281 C 4.746094 8.824219 1.265625 14.558594 0.292969 20.808594 C 0.179688 21.554688 0.144531 21.894531 0.195312 21.792969 C 0.214844 21.75 0.289062 21.566406 0.363281 21.386719 C 1.171875 19.378906 3.441406 17.757812 7.265625 16.457031 C 9.359375 15.746094 11.347656 15.261719 16.378906 14.226562 C 20.941406 13.292969 22.398438 12.929688 23.867188 12.359375 C 25.097656 11.878906 25.945312 11.324219 26.300781 10.765625 C 26.425781 10.566406 26.5625 10.179688 26.5625 10.019531 C 26.5625 9.554688 25.476562 8.484375 24.238281 7.726562 C 21.875 6.289062 18.890625 5.152344 16.140625 4.652344 C 14.671875 4.378906 13.207031 4.28125 12.148438 4.382812 Z M 12.148438 4.382812 "/>
<path style=" stroke:none;fill-rule:nonzero;fill:rgb(0%,0%,0%);fill-opacity:1;" d="M 42.460938 8.191406 C 39.527344 10.046875 36.238281 12.421875 34.011719 14.300781 C 33.6875 14.574219 33.519531 14.738281 33.535156 14.777344 C 33.574219 14.882812 36.738281 18.773438 36.789062 18.773438 C 36.816406 18.777344 37.0625 18.667969 37.339844 18.53125 C 38.9375 17.742188 40.566406 17.242188 42.023438 17.085938 C 42.578125 17.027344 43.675781 17.058594 44.179688 17.144531 C 46.253906 17.511719 47.96875 18.730469 49.449219 20.910156 C 49.6875 21.261719 49.804688 21.410156 49.789062 21.332031 C 49.777344 21.265625 49.738281 21.035156 49.707031 20.8125 C 49.359375 18.464844 48.570312 16.011719 47.441406 13.765625 C 46.640625 12.167969 45.824219 10.878906 44.769531 9.542969 C 44.175781 8.789062 43.257812 7.757812 43.183594 7.757812 C 43.164062 7.761719 42.835938 7.953125 42.460938 8.191406 Z M 42.460938 8.191406 "/>
<path style=" stroke:none;fill-rule:nonzero;fill:rgb(0%,0%,0%);fill-opacity:1;" d="M 27.949219 11.140625 C 27.894531 11.226562 27.109375 11.816406 26.699219 12.078125 C 25.140625 13.078125 23.152344 13.863281 20.410156 14.554688 C 19.179688 14.863281 18.125 15.089844 15.308594 15.648438 C 11.222656 16.457031 9.683594 16.820312 7.910156 17.382812 C 4.113281 18.59375 1.683594 20.273438 0.304688 22.636719 C 0.0664062 23.042969 0.0585938 23.066406 0.03125 23.40625 C -0.0078125 23.945312 -0.00390625 25.070312 0.0390625 25.847656 C 0.277344 30.027344 1.515625 33.925781 3.738281 37.472656 C 4.453125 38.613281 5.832031 40.425781 5.945312 40.375 C 5.972656 40.363281 6.339844 39.9375 6.757812 39.425781 C 13.933594 30.691406 21.75 22.796875 30.441406 15.515625 C 31.035156 15.019531 31.519531 14.59375 31.523438 14.574219 C 31.523438 14.546875 28.019531 11.105469 27.980469 11.097656 C 27.976562 11.097656 27.960938 11.117188 27.949219 11.140625 Z M 27.949219 11.140625 "/>
<path style=" stroke:none;fill-rule:nonzero;fill:rgb(0%,0%,0%);fill-opacity:1;" d="M 31.734375 16.292969 C 24.4375 21.71875 17.363281 28.605469 8.570312 38.84375 C 6.941406 40.742188 6.601562 41.144531 6.601562 41.171875 C 6.601562 41.183594 6.90625 41.496094 7.273438 41.863281 C 11.15625 45.699219 16.152344 48.160156 21.523438 48.882812 C 22.605469 49.027344 22.484375 49.03125 22.941406 48.8125 C 24.179688 48.210938 25.261719 47.199219 26.15625 45.800781 C 26.9375 44.582031 27.785156 42.550781 28.320312 40.609375 C 28.707031 39.214844 29.046875 37.761719 29.453125 35.789062 C 29.496094 35.589844 29.6875 34.65625 29.878906 33.714844 C 30.703125 29.710938 31.078125 28.195312 31.738281 26.207031 C 31.878906 25.789062 32.296875 24.699219 32.46875 24.308594 C 33.378906 22.257812 34.480469 20.738281 35.800781 19.71875 C 35.910156 19.632812 36.003906 19.566406 36.011719 19.558594 C 36.035156 19.542969 32.769531 15.609375 32.722656 15.601562 C 32.695312 15.59375 32.253906 15.90625 31.734375 16.292969 Z M 31.734375 16.292969 "/>
<path style=" stroke:none;fill-rule:nonzero;fill:rgb(0%,0%,0%);fill-opacity:1;" d="M 41.328125 17.921875 C 41.253906 17.929688 41.003906 17.972656 40.773438 18.011719 C 39.667969 18.214844 38.796875 18.664062 38.246094 19.316406 C 38.007812 19.597656 37.992188 19.722656 38.148438 20.113281 C 38.320312 20.539062 38.46875 20.785156 39.605469 22.542969 C 40.449219 23.839844 40.980469 24.699219 41.464844 25.535156 C 44.199219 30.273438 45.199219 34.535156 44.507812 38.515625 C 44.410156 39.074219 44.195312 39.964844 44.085938 40.269531 C 44.054688 40.363281 44.039062 40.4375 44.054688 40.433594 C 44.089844 40.433594 44.753906 39.609375 45.125 39.113281 C 47.734375 35.605469 49.316406 31.671875 49.824219 27.4375 C 49.980469 26.105469 50.039062 24.476562 49.964844 23.332031 L 49.917969 22.605469 L 49.757812 22.296875 C 48.554688 19.9375 46.078125 18.304688 43.164062 17.949219 C 42.765625 17.898438 41.691406 17.882812 41.328125 17.921875 Z M 41.328125 17.921875 "/>
<path style=" stroke:none;fill-rule:nonzero;fill:rgb(0%,0%,0%);fill-opacity:1;" d="M 36.152344 20.925781 C 34.738281 21.429688 33.621094 23.082031 32.714844 26.015625 C 32.230469 27.589844 31.871094 29.082031 31.09375 32.777344 C 30.144531 37.285156 29.757812 38.90625 29.175781 40.820312 C 28.339844 43.582031 27.351562 45.710938 26.222656 47.1875 C 25.824219 47.710938 25.191406 48.371094 24.746094 48.722656 L 24.433594 48.972656 L 25.625 48.949219 C 29.351562 48.882812 32.886719 48.007812 36.269531 46.332031 C 38.519531 45.214844 40.375 43.921875 42.273438 42.160156 C 42.835938 41.632812 42.847656 41.621094 43.046875 41.21875 C 43.417969 40.476562 43.664062 39.609375 43.8125 38.554688 C 43.898438 37.96875 43.910156 36.359375 43.835938 35.636719 C 43.609375 33.429688 42.980469 31.050781 41.992188 28.648438 C 40.726562 25.574219 39.007812 22.769531 37.546875 21.386719 C 37.125 20.984375 37.113281 20.976562 36.84375 20.914062 C 36.496094 20.835938 36.394531 20.835938 36.152344 20.925781 Z M 36.152344 20.925781 "/>
</g>
</svg>
